<?xml version="1.0" encoding="UTF-8"?>
<svg version="1.1" xmlns="http://www.w3.org/2000/svg" width="80" height="74">
<path d="M0 0 C26.4 0 52.8 0 80 0 C80 24.42 80 48.84 80 74 C53.6 74 27.2 74 0 74 C0 49.58 0 25.16 0 0 Z " fill="#FEFCFA" transform="translate(0,0)"/>
<path d="M0 0 C2.536875 -0.061875 5.07375 -0.12375 7.6875 -0.1875 C8.47729248 -0.21481201 9.26708496 -0.24212402 10.08081055 -0.27026367 C14.61476924 -0.32357739 17.43712454 0.16424198 21 3 C24.10577027 7.6586554 23.61853384 12.54364795 23 18 C21.19196596 21.07365786 20.13960536 22.43019732 17 24 C14.11426648 24.07199934 11.25934885 24.0927068 8.375 24.0625 C5.61125 24.041875 2.8475 24.02125 0 24 C0 16.08 0 8.16 0 0 Z " fill="#E67412" transform="translate(53,25)"/>
<path d="M0 0 C2.536875 -0.061875 5.07375 -0.12375 7.6875 -0.1875 C8.47729248 -0.21481201 9.26708496 -0.24212402 10.08081055 -0.27026367 C14.61476924 -0.32357739 17.43712454 0.16424198 21 3 C24.10577027 7.6586554 23.61853384 12.54364795 23 18 C21.19196596 21.07365786 20.13960536 22.43019732 17 24 C14.11426648 24.07199934 11.25934885 24.0927068 8.375 24.0625 C5.61125 24.041875 2.8475 24.02125 0 24 C0 16.08 0 8.16 0 0 Z " fill="#E67311" transform="translate(28,25)"/>
<path d="M0 0 C7.26 0 14.52 0 22 0 C22 2.31 22 4.62 22 7 C20.35 7 18.7 7 17 7 C17 6.34 17 5.68 17 5 C16.34 5 15.68 5 15 5 C15 9.62 15 14.24 15 19 C15.99 19 16.98 19 18 19 C18 20.65 18 22.3 18 24 C13.38 24 8.76 24 4 24 C4 22.35 4 20.7 4 19 C4.99 19 5.98 19 7 19 C7 14.38 7 9.76 7 5 C6.34 5 5.68 5 5 5 C5 5.66 5 6.32 5 7 C3.35 7 1.7 7 0 7 C0 4.69 0 2.38 0 0 Z " fill="#E67311" transform="translate(4,25)"/>
<path d="M0 0 C3 1 3 1 5 4.125 C8.64674902 9.52263463 14.75232586 13.43316071 20.83203125 15.67578125 C30.54221121 17.12793429 41.46413636 17.32327496 50 12 C53.66589195 9.28522435 56.92402797 6.49425944 59.59765625 2.78125 C60.06042969 2.1934375 60.52320313 1.605625 61 1 C61.66 1 62.32 1 63 1 C60.7699934 7.71337064 55.6360904 11.97351649 49.546875 15.3671875 C40.19636986 19.60897294 29.03140962 21.36884358 19.15234375 17.7890625 C11.17541507 14.09137848 5.02418775 9.27045158 0 2 C0 1.34 0 0.68 0 0 Z " fill="#E77E28" transform="translate(8,54)"/>
<path d="M0 0 C3.04653304 2.541782 5.7951682 5.32725899 7.98046875 8.65234375 C7.98046875 9.31234375 7.98046875 9.97234375 7.98046875 10.65234375 C7.32046875 10.65234375 6.66046875 10.65234375 5.98046875 10.65234375 C4.5 9.078125 4.5 9.078125 2.79296875 6.96484375 C-3.64559166 -0.53356199 -10.34799272 -4.37708032 -20.2734375 -5.6328125 C-30.57058684 -6.0564877 -38.5581948 -2.52103065 -46.70703125 3.51953125 C-49.08675065 5.71434002 -50.39667879 7.8799708 -52.01953125 10.65234375 C-52.67953125 10.65234375 -53.33953125 10.65234375 -54.01953125 10.65234375 C-51.65037357 3.48252445 -45.54813196 -1.22238238 -39.01953125 -4.72265625 C-25.45222373 -10.81850416 -12.0003622 -8.59042321 0 0 Z " fill="#E88433" transform="translate(63.01953125,8.34765625)"/>
<path d="M0 0 C3 1 3 1 5 4.125 C8.63437795 9.50432394 14.78047186 13.52360196 20.88671875 15.66015625 C23.99852904 16.16057676 27.10567763 16.35870133 30.25 16.5625 C31.51328125 16.64628906 32.7765625 16.73007813 34.078125 16.81640625 C35.52445313 16.90728516 35.52445313 16.90728516 37 17 C37 17.33 37 17.66 37 18 C27.19425242 19.77337988 21.00600897 19.16154786 12.22265625 14.25 C7.35860826 10.85401013 3.3755391 6.88470869 0 2 C0 1.34 0 0.68 0 0 Z " fill="#EB934B" transform="translate(8,54)"/>
<path d="M0 0 C1.32 0.33 2.64 0.66 4 1 C4 4.96 4 8.92 4 13 C2.68 13.33 1.36 13.66 0 14 C0 9.38 0 4.76 0 0 Z " fill="#FCF1E8" transform="translate(63,30)"/>
<path d="M0 0 C1.32 0.33 2.64 0.66 4 1 C4 4.96 4 8.92 4 13 C2.68 13.33 1.36 13.66 0 14 C0 9.38 0 4.76 0 0 Z " fill="#FCF4ED" transform="translate(38,30)"/>
<path d="M0 0 C0.99 0 1.98 0 3 0 C3.02717692 2.06242617 3.0464758 4.12495703 3.0625 6.1875 C3.07410156 7.33605469 3.08570313 8.48460937 3.09765625 9.66796875 C3.01192832 12.59300586 2.67849023 15.16316291 2 18 C-0.53835868 15.41596392 -0.99485632 14.23931642 -1.07421875 10.546875 C-0.94660156 9.29390625 -0.81898437 8.0409375 -0.6875 6.75 C-0.56761719 5.48671875 -0.44773438 4.2234375 -0.32421875 2.921875 C-0.21722656 1.95765625 -0.11023437 0.9934375 0 0 Z " fill="#FBEBDE" transform="translate(51,31)"/>
<path d="M0 0 C-0.66386719 0.38671875 -1.32773437 0.7734375 -2.01171875 1.171875 C-11.36168738 6.64883224 -11.36168738 6.64883224 -18 15 C-18.66 15 -19.32 15 -20 15 C-17.67161786 7.89100346 -11.83654061 3.73344148 -5.625 -0.0625 C-3 -1 -3 -1 0 0 Z " fill="#E67922" transform="translate(29,4)"/>
<path d="M0 0 C3.32797827 1.10932609 3.56067025 1.50114436 5.3125 4.3125 C7.76522553 7.94672136 10.22936834 9.80777229 14 12 C13.34 12.66 12.68 13.32 12 14 C10.55834372 12.75479583 9.12184348 11.50362077 7.6875 10.25 C6.88699219 9.55390625 6.08648437 8.8578125 5.26171875 8.140625 C3.20663514 6.19557177 1.5382748 4.36964014 0 2 C0 1.34 0 0.68 0 0 Z " fill="#E78130" transform="translate(8,54)"/>
</svg>
